<?xml version="1.0" encoding="utf-8"?>
<!-- Generator: Adobe Illustrator 23.0.4, SVG Export Plug-In . SVG Version: 6.00 Build 0)  -->
<svg version="1.1" id="Layer_1" xmlns="http://www.w3.org/2000/svg" xmlns:xlink="http://www.w3.org/1999/xlink" x="0px" y="0px" width="150px" height="31px"
	 viewBox="0 0 416.06 84.25" style="enable-background:new 0 0 416.06 84.25;" xml:space="preserve">
<style type="text/css">
	.st0{fill:#0056FF;}
	.st1{fill:#FFFFFF;}
</style>
<g>
	<path class="st0" d="M96.03,32.44H16.22C7.3,32.44,0,25.14,0,16.22v0C0,7.3,7.3,0,16.22,0h79.81c8.92,0,16.22,7.3,16.22,16.22v0
		C112.25,25.14,104.95,32.44,96.03,32.44z"/>
	<g>
		<path class="st1" d="M32.81,24.74V13.46l-4.39,8.4h-1.8l-4.39-8.4v11.28h-3.31V7.7h3.55l5.04,9.7l5.09-9.7h3.53v17.04H32.81z"/>
		<path class="st1" d="M51.63,24.74V7.72h3.31v8.3l7.37-8.33h3.43l-6.53,7.56l6.94,9.48h-3.5l-5.42-7.61l-2.28,2.47v5.14H51.63z"/>
		<path class="st1" d="M93.31,20.35c0,0.72-0.14,1.35-0.43,1.9c-0.29,0.54-0.68,1-1.19,1.37s-1.09,0.65-1.75,0.84
			c-0.66,0.19-1.37,0.29-2.12,0.29h-8.23V7.7h9.12c0.59,0,1.13,0.13,1.61,0.38c0.48,0.26,0.89,0.59,1.22,1
			c0.34,0.41,0.6,0.87,0.78,1.39c0.18,0.52,0.28,1.04,0.28,1.57c0,0.83-0.21,1.61-0.62,2.34c-0.42,0.73-1.02,1.27-1.82,1.62
			c0.98,0.29,1.75,0.8,2.32,1.55C93.02,18.3,93.31,19.23,93.31,20.35z M82.89,10.53v4.3h4.42c0.56,0,1.04-0.19,1.43-0.58
			s0.59-0.91,0.59-1.58c0-0.66-0.18-1.18-0.54-1.56c-0.36-0.38-0.8-0.58-1.33-0.58H82.89z M89.97,19.72c0-0.3-0.05-0.6-0.16-0.88
			c-0.1-0.28-0.24-0.52-0.42-0.73c-0.18-0.21-0.38-0.37-0.62-0.49c-0.24-0.12-0.5-0.18-0.79-0.18h-5.09v4.49h4.92
			c0.3,0,0.59-0.06,0.85-0.17c0.26-0.11,0.49-0.27,0.68-0.47s0.34-0.44,0.46-0.71C89.92,20.32,89.97,20.03,89.97,19.72z"/>
	</g>
	<g>
		<g>
			<path d="M30.82,73.76v9.96H1.17v-41.6h29.12v9.96h-17.7v5.86h15.12v9.26H12.59v6.56H30.82z"/>
			<path d="M54.76,73.94c1.33,0,2.46-0.29,3.4-0.88s1.7-1.36,2.29-2.31c0.59-0.96,1.02-2.06,1.29-3.31
				c0.27-1.25,0.41-2.56,0.41-3.93V42.12h11.43v21.39c0,2.89-0.37,5.6-1.11,8.12c-0.74,2.52-1.9,4.7-3.46,6.53
				c-1.56,1.84-3.53,3.28-5.89,4.34c-2.36,1.05-5.15,1.58-8.35,1.58c-3.32,0-6.16-0.56-8.53-1.67c-2.36-1.11-4.31-2.61-5.83-4.48
				c-1.52-1.87-2.64-4.05-3.34-6.53c-0.7-2.48-1.05-5.11-1.05-7.88V42.12h11.43v21.39c0,1.37,0.14,2.69,0.41,3.96
				c0.27,1.27,0.7,2.38,1.29,3.34c0.59,0.96,1.34,1.72,2.26,2.29C52.31,73.66,53.43,73.94,54.76,73.94z"/>
			<path d="M79.19,83.73v-41.6h19.1c2.03,0,3.91,0.42,5.63,1.26c1.72,0.84,3.19,1.93,4.42,3.28s2.2,2.89,2.9,4.63
				c0.7,1.74,1.05,3.49,1.05,5.24c0,2.42-0.53,4.68-1.58,6.77c-1.05,2.09-2.52,3.8-4.39,5.13l8.79,15.29h-12.89L94.9,70.95h-4.28
				v12.77H79.19z M90.62,60.99h7.21c0.7,0,1.36-0.39,1.96-1.17c0.61-0.78,0.91-1.87,0.91-3.28c0-1.44-0.35-2.55-1.05-3.31
				c-0.7-0.76-1.41-1.14-2.11-1.14h-6.91V60.99z"/>
			<path d="M137.8,84.08c-3.16,0-6.04-0.6-8.61-1.82c-2.58-1.21-4.79-2.8-6.62-4.78c-1.84-1.97-3.26-4.23-4.28-6.77
				c-1.02-2.54-1.52-5.16-1.52-7.85c0-2.73,0.53-5.37,1.58-7.91c1.05-2.54,2.53-4.78,4.42-6.71c1.89-1.93,4.14-3.48,6.74-4.63
				c2.6-1.15,5.44-1.73,8.53-1.73c3.16,0,6.04,0.61,8.61,1.82c2.58,1.21,4.78,2.81,6.62,4.8c1.84,1.99,3.25,4.26,4.25,6.8
				c1,2.54,1.49,5.14,1.49,7.79c0,2.73-0.53,5.36-1.58,7.88c-1.05,2.52-2.52,4.75-4.39,6.68c-1.88,1.93-4.11,3.49-6.71,4.66
				C143.73,83.49,140.89,84.08,137.8,84.08z M128.37,62.98c0,1.41,0.2,2.76,0.59,4.07c0.39,1.31,0.98,2.47,1.76,3.49
				c0.78,1.02,1.77,1.84,2.96,2.46c1.19,0.63,2.61,0.94,4.25,0.94c1.64,0,3.07-0.32,4.28-0.97c1.21-0.64,2.2-1.48,2.96-2.52
				c0.76-1.03,1.33-2.22,1.7-3.54c0.37-1.33,0.56-2.68,0.56-4.04c0-1.41-0.2-2.76-0.59-4.07c-0.39-1.31-0.99-2.46-1.79-3.46
				c-0.8-1-1.8-1.8-2.99-2.4c-1.19-0.61-2.59-0.91-4.19-0.91c-1.64,0-3.06,0.31-4.25,0.94c-1.19,0.63-2.18,1.46-2.96,2.49
				c-0.78,1.04-1.36,2.21-1.73,3.52C128.55,60.28,128.37,61.61,128.37,62.98z"/>
			<path d="M163.45,83.73v-41.6h11.43v31.64h18.87v9.96H163.45z"/>
			<path d="M227.29,73.76v9.96h-29.65v-41.6h29.12v9.96h-17.7v5.86h15.12v9.26h-15.12v6.56H227.29z"/>
			<path d="M244.85,42.12h10.43l14.42,41.6h-11.6l-2.52-8.14H244.5l-2.46,8.14h-11.66L244.85,42.12z M253.76,67.96l-3.69-12.89
				l-3.87,12.89H253.76z"/>
			<path d="M298.68,55.72c-1.17-0.7-2.38-1.33-3.63-1.88c-1.05-0.47-2.24-0.91-3.55-1.32c-1.31-0.41-2.59-0.62-3.84-0.62
				c-1.02,0-1.83,0.16-2.43,0.47c-0.61,0.31-0.91,0.84-0.91,1.58c0,0.55,0.18,1,0.53,1.35c0.35,0.35,0.86,0.67,1.52,0.97
				c0.66,0.29,1.47,0.58,2.43,0.85c0.96,0.27,2.04,0.61,3.25,1c1.91,0.59,3.64,1.23,5.19,1.93c1.54,0.7,2.86,1.53,3.96,2.49
				c1.09,0.96,1.93,2.12,2.52,3.49c0.59,1.37,0.88,3.03,0.88,4.98c0,2.5-0.46,4.6-1.38,6.3c-0.92,1.7-2.13,3.06-3.63,4.07
				c-1.5,1.02-3.2,1.75-5.1,2.2c-1.9,0.45-3.8,0.67-5.71,0.67c-1.52,0-3.09-0.12-4.69-0.35c-1.6-0.24-3.19-0.57-4.78-1
				c-1.58-0.43-3.11-0.94-4.57-1.52c-1.46-0.59-2.82-1.25-4.07-1.99l4.92-10.02c1.37,0.86,2.79,1.62,4.28,2.29
				c1.25,0.59,2.67,1.11,4.25,1.58c1.58,0.47,3.19,0.7,4.83,0.7c1.25,0,2.12-0.17,2.61-0.5c0.49-0.33,0.73-0.77,0.73-1.32
				c0-0.59-0.24-1.08-0.73-1.49c-0.49-0.41-1.16-0.77-2.02-1.08c-0.86-0.31-1.85-0.62-2.96-0.94c-1.11-0.31-2.3-0.68-3.55-1.11
				c-1.84-0.62-3.42-1.3-4.75-2.02c-1.33-0.72-2.42-1.54-3.28-2.46c-0.86-0.92-1.49-1.96-1.9-3.14c-0.41-1.17-0.62-2.52-0.62-4.04
				c0-2.3,0.42-4.34,1.26-6.09c0.84-1.76,1.98-3.22,3.43-4.39c1.44-1.17,3.1-2.06,4.95-2.67c1.86-0.61,3.82-0.91,5.89-0.91
				c1.52,0,3.01,0.15,4.45,0.44c1.44,0.29,2.84,0.66,4.19,1.11c1.35,0.45,2.61,0.94,3.78,1.47c1.17,0.53,2.23,1.03,3.16,1.49
				L298.68,55.72z"/>
			<path d="M311.01,83.73v-41.6h11.43v41.6H311.01z"/>
			<path d="M341.53,63.27v20.45H330.1v-41.6h8.91l16.7,21.15V42.12h11.43v41.6h-9.08L341.53,63.27z"/>
		</g>
		<path class="st0" d="M394.94,41.82c-5.66,0-10.81,2.24-14.6,5.88v-5.59h-7.3v15.62v1.56v5.74h18.78v-7.3h-5.59
			c1.78-2.96,5.02-4.96,8.72-4.96c5.61,0,10.17,4.56,10.17,10.17c0,5.61-4.56,10.17-10.17,10.17c-3.27,0-6.36-1.59-8.27-4.25
			l-8.89,6.39c3.96,5.51,10.38,8.81,17.16,8.81c11.65,0,21.12-9.48,21.12-21.12C416.06,51.3,406.58,41.82,394.94,41.82z"/>
	</g>
</g>
</svg>
